<?xml version="1.0" encoding="utf-8"?>
<!-- Generator: Adobe Illustrator 24.1.1, SVG Export Plug-In . SVG Version: 6.00 Build 0)  -->
<svg version="1.1" id="Layer_1" xmlns="http://www.w3.org/2000/svg" xmlns:xlink="http://www.w3.org/1999/xlink" x="0px" y="0px"
	 viewBox="0 0 560 288" style="enable-background:new 0 0 560 288;" xml:space="preserve">
<style type="text/css">
	.st0{fill:url(#SVGID_1_);}
	.st1{fill:url(#SVGID_2_);}
	.st2{fill:url(#SVGID_3_);}
	.st3{fill:url(#SVGID_4_);}
</style>
<linearGradient id="SVGID_1_" gradientUnits="userSpaceOnUse" x1="9.094947e-13" y1="144" x2="560.0013" y2="144">
	<stop  offset="0" style="stop-color:#FF3061"/>
	<stop  offset="0.4144" style="stop-color:#D73BA2"/>
	<stop  offset="0.8099" style="stop-color:#B544DA"/>
	<stop  offset="1" style="stop-color:#A848F0"/>
</linearGradient>
<rect x="0" class="st0" width="560" height="288"/>
<linearGradient id="SVGID_2_" gradientUnits="userSpaceOnUse" x1="505.6441" y1="32.3588" x2="550.9942" y2="32.3588">
	<stop  offset="0" style="stop-color:#940063"/>
	<stop  offset="0.1722" style="stop-color:#810064"/>
	<stop  offset="0.7302" style="stop-color:#4A0067"/>
	<stop  offset="1" style="stop-color:#340068"/>
</linearGradient>
<polygon class="st1" points="528.32,10.79 535.33,24.99 550.99,27.27 539.66,38.32 542.33,53.92 528.32,46.56 514.31,53.92 
	516.98,38.32 505.64,27.27 521.31,24.99 "/>
<linearGradient id="SVGID_3_" gradientUnits="userSpaceOnUse" x1="347.7436" y1="211.7203" x2="556.7437" y2="211.7203" gradientTransform="matrix(0.0624 -0.998 0.998 0.0624 -122.3235 473.7485)">
	<stop  offset="0" style="stop-color:#940063"/>
	<stop  offset="0.1722" style="stop-color:#810064"/>
	<stop  offset="0.7302" style="stop-color:#4A0067"/>
	<stop  offset="1" style="stop-color:#340068"/>
</linearGradient>
<path class="st2" d="M106.84,26.89c-0.5,0.8-0.92,1.64-1.26,2.47c-13.97,31.19-1.19,67.06-17.03,96.12
	c3.18-2.81,5.36-5.68,7.55-8.55c-3.56,8.8-13.85,13.16-18.34,20.9c20.83-12.72,24.27-35.55,27.64-57.39
	c2.18-18.9-2.99-48.28,20.65-57.82c6.18-2.62,10.29-20.4,9.92-30.44c0.25-20.02,5.49-39.73,12.67-58.32
	c-4.06,16.78-18.4,37.93-3.31,52.9l-0.94-1.06c4.68,5.3,0.06,15.03,7.92,17.53c-2-0.12-3.99-0.25-4.93-1.31
	c-0.87-2.06,1.37-5.93,0.37-5.99c-13.85-18.9-6.3-43.48,0.94-63.06"/>
<linearGradient id="SVGID_4_" gradientUnits="userSpaceOnUse" x1="216.5023" y1="178.1717" x2="556.7437" y2="178.1717" gradientTransform="matrix(0.0624 -0.998 0.998 0.0624 -122.3235 473.7485)">
	<stop  offset="0" style="stop-color:#940063"/>
	<stop  offset="0.1722" style="stop-color:#810064"/>
	<stop  offset="0.7302" style="stop-color:#4A0067"/>
	<stop  offset="1" style="stop-color:#340068"/>
</linearGradient>
<path class="st3" d="M148.69-67.13c-2.99,15.84-16.97,31-10.04,48.47c-3.8-19.28-23.02-32.5-40.17-30.57
	C75.2-45.68,67.41-17.11,62.04,4.6c-3.87-18.28-2.62-38.24-10.54-55.77c0.5,8.05,2.99,16.22,2.49,24.2
	c0.87,50.15,10.85,98.87,21.89,146.65c11.29-4.3,8.17-18.53,7.8-28.57c-0.5,7.98,1.06,15.1-2.43,22.89
	c-1.19,2.93-7.49,7.55-8.17,2.49c-1.5-8.11,0-16.03-2.49-24.2c3.49,8.23-2.37,21.89,4.49,24.33c8.8,3.56,7.99-15.53,7.8-24.94
	c-0.03-2.25,0.02-2.98,0.02-2.98c1.29,10.45,4.03,30.67-7.88,28.92c-3.99-0.25-0.37-10.04-2-16.16
	C60.48,61.61,54.99,21.19,54.56-19.92c-0.37-10.04-1.68-21.15-3.06-31.25c2.37,10.17,5.74,20.4,8.05,31.56
	c2.81,19.21-2.87,45.91,14.66,54.02c3.87,2.25,3.74-11.79,11.91-14.28c-2.31,36.93,26.94,113.9-28.01,111.47
	c-10.98-0.69-6.61-22.46-14.1-30.94c-3.8-3.24-16.28,3.99-14.78,12.1c2.43,9.17,8.86,18.59,18.65,22.21
	c-6.86-2.43-11.41-9.73-9.98-16.66c6.55,7.42,10.1,14.66,15.66,22.02c9.42,9.61,7.55,55.58,10.98,48.78
	c6.74-11.6,20.02-15.78,22.83-28.63c3.12-17.84,13.04-32.25,20.09-48.84c2.74,4.18,5.36,10.36,12.41,9.79
	c-4.12,1.75-9.23,3.43-13.16,2.18c-4.87-2.31-7.49,7.55-9.79,12.41c-7.24,19.59-14.29,36.18-26.33,52.46
	c4.87-13.72,19.34-20.83,20.27-35.8c3.24,12.23-8.36,21.52-13.91,30.19c-10.11,17.4,8.11,30.57,11.04,47.78
	c-0.12,2-2.25,3.87-3.24,3.8c-23.08-15.47-35.49-41.3-48.96-66.19c-1.75-4.12-8.73-4.55-10.35-10.67c-0.12,2,0.75,4.05-0.37,5.99
	c-2.25,3.87-9.29,4.43-8.67,10.48c3.24-3.8,8.67-10.48,11.54-8.3c20.96,17.34,29.44,41.92,39.98,65.62
	c-8.17-13.54-13.22-28.88-24.51-40.61c10.54,23.7,16.59,55.14,45.22,61.94c-9.23,3.43-19.84-3.24-28.26,3.24
	c-3.18,2.81-1.87,13.91,1.25,12.1c16.53-7.98,32.56-7.98,48.16-17.03c8.3-4.49,2.93-14.85,2.43-22.89
	c6.74,4.43,5.36,10.36-0.87,13.97c-21.77,11.66-48.16,1-53.71-22.4c7.05,15.47,21.21,29.38,39.48,25.51c1,0.06,0.31-4.99,0.5-7.98
	c-1.93-17.15-19.27-28.26-17.21-45.16c-5.12,1.68-0.31,4.99-0.44,6.99c0.06,15.03,23.83,35.56,7.42,41.54
	c-13.35,5.18-19.77-20.27-28.01-32.81c5.36,10.36,12.85,18.84,20.27,28.32c4.68,5.3,10.17-2.37,9.48-7.42
	c-4.05-15.28-20.33-27.32-12.29-43.85c4.49-7.73,13.79-12.16,16.34-21.02c2.93-14.85,3.99-31.81,21.21-34.74
	c-8.92,14.47-7.05,32.62-15.97,47.09c-2.25,3.87-4.43,6.74-7.67,10.54c-2.18,2.87-1.43,6.92-1.68,10.92
	c8.05-16.53,21.83-28.69,22.08-48.72c0.44-6.99,3.06-16.84,10.23-19.4c4.05-0.75,8.92,1.56,10.67,5.68
	c0.81-12.97-12.1-14.78-18.59-23.21c-1.87-2.12-2.68-5.18-4.55-7.3c-13.85,29.19-20.9,61.82-47.29,83.21
	c-5.24,3.68-7.67-5.49-6.49-8.42c5.86-13.66,4.74-27.76,0.56-41.04c-0.81-3.06-6.86-2.43-9.61-6.61c-4.55-7.3-2.06-15.16-8.73-20.59
	c13.54,7.86,9.98,32.69,30.44,25.95c-1-0.06-2-0.12-2.99-0.19c45.72-10.17,25.08-64.56,37.24-98.87
	c2.37-5.86,4.74-11.73,10.04-16.41c-2.23,1.29-3.98,3.13-5.23,5.14"/>
</svg>
