<?xml version="1.0" encoding="utf-8"?>
<!-- Generator: Adobe Illustrator 24.1.1, SVG Export Plug-In . SVG Version: 6.00 Build 0)  -->
<svg version="1.1" id="Layer_1" xmlns="http://www.w3.org/2000/svg" xmlns:xlink="http://www.w3.org/1999/xlink" x="0px" y="0px"
	 viewBox="0 0 560 288" style="enable-background:new 0 0 560 288;" xml:space="preserve">
<style type="text/css">
	.st0{fill:url(#SVGID_1_);}
	.st1{fill:url(#SVGID_2_);}
	.st2{fill:url(#SVGID_3_);}
	.st3{fill:url(#SVGID_4_);}
</style>
<linearGradient id="SVGID_1_" gradientUnits="userSpaceOnUse" x1="0" y1="144" x2="560" y2="144" gradientTransform="matrix(1 0 0 -1 0 288)">
	<stop  offset="0" style="stop-color:#FF3061"/>
	<stop  offset="0.4144" style="stop-color:#D73BA2"/>
	<stop  offset="0.8099" style="stop-color:#B544DA"/>
	<stop  offset="1" style="stop-color:#A848F0"/>
</linearGradient>
<rect class="st0" width="560" height="288"/>
<linearGradient id="SVGID_2_" gradientUnits="userSpaceOnUse" x1="505.64" y1="255.645" x2="550.99" y2="255.645" gradientTransform="matrix(1 0 0 -1 0 288)">
	<stop  offset="0" style="stop-color:#940063"/>
	<stop  offset="0.1722" style="stop-color:#810064"/>
	<stop  offset="0.7302" style="stop-color:#4A0067"/>
	<stop  offset="1" style="stop-color:#340068"/>
</linearGradient>
<polygon class="st1" points="528.3,10.8 535.3,25 551,27.3 539.7,38.3 542.3,53.9 528.3,46.6 514.3,53.9 517,38.3 505.6,27.3 
	521.3,25 "/>
<linearGradient id="SVGID_3_" gradientUnits="userSpaceOnUse" x1="347.7674" y1="76.2554" x2="556.7649" y2="76.2554" gradientTransform="matrix(6.240000e-02 -0.998 -0.998 -6.240000e-02 165.1005 491.7197)">
	<stop  offset="0" style="stop-color:#940063"/>
	<stop  offset="0.1722" style="stop-color:#810064"/>
	<stop  offset="0.7302" style="stop-color:#4A0067"/>
	<stop  offset="1" style="stop-color:#340068"/>
</linearGradient>
<path class="st2" d="M106.8,26.9c-0.5,0.8-0.9,1.6-1.3,2.5c-14,31.2-1.2,67.1-17,96.1c3.2-2.8,5.4-5.7,7.6-8.6
	c-3.6,8.8-13.8,13.2-18.3,20.9c20.8-12.7,24.3-35.6,27.6-57.4c2.2-18.9-3-48.3,20.7-57.8c6.2-2.6,10.3-20.4,9.9-30.4
	c0.3-20,5.5-39.7,12.7-58.3c-4.1,16.8-18.4,37.9-3.3,52.9l-0.9-1.1c4.7,5.3,0.1,15,7.9,17.5c-2-0.1-4-0.3-4.9-1.3
	c-0.9-2.1,1.4-5.9,0.4-6c-13.9-18.9-6.3-43.5,0.9-63.1"/>
<linearGradient id="SVGID_4_" gradientUnits="userSpaceOnUse" x1="216.5456" y1="109.797" x2="556.7649" y2="109.797" gradientTransform="matrix(6.240000e-02 -0.998 -0.998 -6.240000e-02 165.1005 491.7197)">
	<stop  offset="0" style="stop-color:#940063"/>
	<stop  offset="0.1722" style="stop-color:#810064"/>
	<stop  offset="0.7302" style="stop-color:#4A0067"/>
	<stop  offset="1" style="stop-color:#340068"/>
</linearGradient>
<path class="st3" d="M148.7-67.1c-3,15.8-17,31-10,48.5c-3.8-19.3-23-32.5-40.2-30.6C75.2-45.7,67.4-17.1,62,4.6
	c-3.9-18.3-2.6-38.2-10.5-55.8c0.5,8,3,16.2,2.5,24.2c0.9,50.2,10.9,98.9,21.9,146.6c11.3-4.3,8.2-18.5,7.8-28.6
	c-0.5,8,1.1,15.1-2.4,22.9c-1.2,2.9-7.5,7.6-8.2,2.5c-1.5-8.1,0-16-2.5-24.2c3.5,8.2-2.4,21.9,4.5,24.3c8.8,3.6,8-15.5,7.8-24.9
	c0-2.3,0-3,0-3c1.3,10.4,4,30.7-7.9,28.9c-4-0.3-0.4-10-2-16.2C60.5,61.6,55,21.2,54.6-19.9c-0.4-10-1.7-21.1-3.1-31.2
	c2.4,10.2,5.7,20.4,8,31.6c2.8,19.2-2.9,45.9,14.7,54c3.9,2.3,3.7-11.8,11.9-14.3c-2.3,36.9,26.9,113.9-28,111.5
	c-11-0.7-6.6-22.5-14.1-30.9c-3.8-3.2-16.3,4-14.8,12.1c2.4,9.2,8.9,18.6,18.7,22.2c-6.9-2.4-11.4-9.7-10-16.7
	c6.5,7.4,10.1,14.7,15.7,22c9.4,9.6,7.5,55.6,11,48.8c6.7-11.6,20-15.8,22.8-28.6c3.1-17.8,13-32.3,20.1-48.8
	c2.7,4.2,5.4,10.4,12.4,9.8c-4.1,1.8-9.2,3.4-13.2,2.2c-4.9-2.3-7.5,7.6-9.8,12.4c-7.2,19.6-14.3,36.2-26.3,52.5
	c4.9-13.7,19.3-20.8,20.3-35.8c3.2,12.2-8.4,21.5-13.9,30.2c-10.1,17.4,8.1,30.6,11,47.8c-0.1,2-2.3,3.9-3.2,3.8
	c-23.1-15.5-35.5-41.3-49-66.2c-1.8-4.1-8.7-4.6-10.4-10.7c-0.1,2,0.8,4.1-0.4,6c-2.3,3.9-9.3,4.4-8.7,10.5
	c3.2-3.8,8.7-10.5,11.5-8.3c21,17.3,29.4,41.9,40,65.6c-8.2-13.5-13.2-28.9-24.5-40.6c10.5,23.7,16.6,55.1,45.2,61.9
	c-9.2,3.4-19.8-3.2-28.3,3.2c-3.2,2.8-1.9,13.9,1.3,12.1c16.5-8,32.6-8,48.2-17c8.3-4.5,2.9-14.9,2.4-22.9c6.7,4.4,5.4,10.4-0.9,14
	c-21.8,11.7-48.2,1-53.7-22.4c7.1,15.5,21.2,29.4,39.5,25.5c1,0.1,0.3-5,0.5-8c-1.9-17.1-19.3-28.3-17.2-45.2c-5.1,1.7-0.3,5-0.4,7
	c0.1,15,23.8,35.6,7.4,41.5c-13.3,5.2-19.8-20.3-28-32.8c5.4,10.4,12.8,18.8,20.3,28.3c4.7,5.3,10.2-2.4,9.5-7.4
	c-4.1-15.3-20.3-27.3-12.3-43.8c4.5-7.7,13.8-12.2,16.3-21c2.9-14.9,4-31.8,21.2-34.7c-8.9,14.5-7.1,32.6-16,47.1
	c-2.3,3.9-4.4,6.7-7.7,10.5c-2.2,2.9-1.4,6.9-1.7,10.9c8.1-16.5,21.8-28.7,22.1-48.7c0.4-7,3.1-16.8,10.2-19.4
	c4.1-0.8,8.9,1.6,10.7,5.7c0.8-13-12.1-14.8-18.6-23.2c-1.9-2.1-2.7-5.2-4.6-7.3C95,133.9,88,166.5,61.6,187.9
	c-5.2,3.7-7.7-5.5-6.5-8.4c5.9-13.7,4.7-27.8,0.6-41c-0.8-3.1-6.9-2.4-9.6-6.6c-4.5-7.3-2.1-15.2-8.7-20.6
	c13.5,7.9,10,32.7,30.4,25.9c-1-0.1-2-0.1-3-0.2c45.7-10.2,25.1-64.6,37.2-98.9c2.4-5.9,4.7-11.7,10-16.4c-2.2,1.3-4,3.1-5.2,5.1"/>
</svg>
