<svg id="Layer_1" data-name="Layer 1" xmlns="http://www.w3.org/2000/svg" xmlns:xlink="http://www.w3.org/1999/xlink" viewBox="0 0 208.1 136.41"><defs><style>.cls-1{fill:#940068;opacity:0.27;}.cls-2{fill:url(#linear-gradient);}.cls-3,.cls-5{fill:none;stroke-miterlimit:10;}.cls-3{stroke:#fff;opacity:0.07;}.cls-4{fill:url(#linear-gradient-2);}.cls-5{stroke:#000b6a;stroke-width:0.25px;opacity:0.1;}</style><linearGradient id="linear-gradient" x1="37.29" y1="70.91" x2="209.56" y2="70.91" gradientUnits="userSpaceOnUse"><stop offset="0" stop-color="#fff"/><stop offset="0" stop-color="#940063"/><stop offset="0.2" stop-color="#870064"/><stop offset="0.58" stop-color="#630066"/><stop offset="1" stop-color="#340068"/></linearGradient><linearGradient id="linear-gradient-2" x1="255.96" y1="64.79" x2="255.96" y2="64.79" gradientUnits="userSpaceOnUse"><stop offset="0" stop-color="#fff"/><stop offset="0" stop-color="#940063"/><stop offset="0.88" stop-color="#10006a"/></linearGradient></defs><path class="cls-1" d="M131.72,82.11c-1.76,24-32.65,45-60.13,45.18-35.26.21-68.15-33.94-70-64.78a40.44,40.44,0,0,1,.39-9.13c4.7-28.45,41.38-46.26,69.65-45,4.48.19,9.64.46,15.9,3.16,14.3,6.16,21.88,19.58,29.94,34.3C127.39,64,132.38,73.11,131.72,82.11Z" transform="translate(-1.46 -2.71)"/><path class="cls-2" d="M209.49,87.34c-2.32,27.47-43.17,51.59-79.5,51.78-46.6.24-90.08-38.9-92.59-74.25a41.24,41.24,0,0,1,.51-10.47C44.13,21.8,92.63,1.38,130,2.78c5.93.22,12.75.53,21,3.62,18.9,7.06,28.92,22.45,39.57,39.32C203.77,66.58,210.36,77,209.49,87.34Z" transform="translate(-1.46 -2.71)"/><path class="cls-3" d="M76.05,37.34c2,2.9,1.32,9.65.48,6.9A6.63,6.63,0,0,1,70,49.78c3,1,3-1,4-3-1,5-6,3-9.44,5.08-4.51,2.5-7.74,4-3.59.59-8.53,6.87,6.19-2.78,8.78-6.22C63.5,49,44.76,61.75,50.27,48c-5.83,13.41,5.89,3.08,11.6-5-7.73,5.83-14.52,8.35-16-5.66,1.51,12.73,10.6,4.29,14.27-1.19-2.32,2.81-3.18-3.22-9.84-9.48,7.89,5,14.47,6.64,16.68,6.43s.5-3.13-6-10.86C76.14,37.7,79.16,41.65,71.63,26.67c2,3.85,3.75,7,5,9.25s1.89,3.64,1.7,4C78.09,43.06,78,40.15,76.05,37.34Z" transform="translate(-1.46 -2.71)"/><path class="cls-3" d="M203.39,94c-12,.57-22.36.74-5.91,4-17.27-1.51-12.52.76,1.49,6.66-15.51-4.4-31.51-9.92-12.73-2.83-19.91-7.21-17.2-5.59,2,7.26-19.95-12.85-25.47-15.88-16.71-13.74-8.9-2.24-8.41-2.06,6,9.31-14.47-11.4-15-11.61-12.42-16.17-2.64,4.5-2.54,4.49,8,5.49-10.53-1-10.63-1-8.4-8.93-2.2,7.83-1.76,7.33,12.83-1.74-14.59,9.07-15,9.47-9.92-.54-4.95,10-1.2,6.71,20.6-3.89C166.66,89.45,163.5,92.11,177.81,82,164,92.18,179.37,86.48,199,83.28c-18.66,4.14-26.79,7.13-6.07,4C173.78,91.68,191.4,91.79,203.39,94Z" transform="translate(-1.46 -2.71)"/><path class="cls-4" d="M256,64.79" transform="translate(-1.46 -2.71)"/><path class="cls-5" d="M104.19,94.48c11-9.39,19,7.61,28.61,9" transform="translate(-1.46 -2.71)"/><path class="cls-5" d="M105.86,110.7c-1.63-3.61,2.37-7.61,5.37-6.61,9,1,18,5,27.22,5.69" transform="translate(-1.46 -2.71)"/><path class="cls-5" d="M105.86,110.7c-1.63-3.61,2.37-7.61,5.37-6.61,9,1,18,5,27.22,5.69" transform="translate(-1.46 -2.71)"/><path class="cls-5" d="M105.86,110.7c-1.63-3.61,2.37-7.61,5.37-6.61,9,1,18,5,27.22,5.69" transform="translate(-1.46 -2.71)"/><path class="cls-5" d="M109.88,121.86c-1.65-4.77,4.35-7.77,8.35-7.77,8,0,16,2,24.28,3.09" transform="translate(-1.46 -2.71)"/><path class="cls-5" d="M109.88,121.86c-1.65-4.77,4.35-7.77,8.35-7.77,8,0,16,2,24.28,3.09" transform="translate(-1.46 -2.71)"/><path class="cls-5" d="M109.88,121.86c-1.65-4.77,4.35-7.77,8.35-7.77,8,0,16,2,24.28,3.09" transform="translate(-1.46 -2.71)"/><path class="cls-5" d="M113.26,131.54c9-6.45,23-11.45,31.15-2.58" transform="translate(-1.46 -2.71)"/><path class="cls-5" d="M113.26,131.54c9-6.45,23-11.45,31.15-2.58" transform="translate(-1.46 -2.71)"/><path class="cls-5" d="M113.26,131.54c9-6.45,23-11.45,31.15-2.58" transform="translate(-1.46 -2.71)"/><path class="cls-5" d="M113.26,131.54c9-6.45,23-11.45,31.15-2.58" transform="translate(-1.46 -2.71)"/><path class="cls-5" d="M113.26,131.54c9-6.45,23-11.45,31.15-2.58" transform="translate(-1.46 -2.71)"/><path class="cls-5" d="M113.26,131.54c9-6.45,23-11.45,31.15-2.58" transform="translate(-1.46 -2.71)"/><path class="cls-5" d="M113.26,131.54c9-6.45,23-11.45,31.15-2.58" transform="translate(-1.46 -2.71)"/><path class="cls-5" d="M113.26,131.54c9-6.45,23-11.45,31.15-2.58" transform="translate(-1.46 -2.71)"/><path class="cls-5" d="M113.26,131.54c9-6.45,23-11.45,31.15-2.58" transform="translate(-1.46 -2.71)"/><path class="cls-5" d="M113.41,137.65c9.82-.56,23.82-8.56,29.46,1" transform="translate(-1.46 -2.71)"/></svg>