<?xml version="1.0" encoding="utf-8"?>
<!-- Generator: Adobe Illustrator 24.1.1, SVG Export Plug-In . SVG Version: 6.00 Build 0)  -->
<svg version="1.1" id="Layer_1" xmlns="http://www.w3.org/2000/svg" xmlns:xlink="http://www.w3.org/1999/xlink" x="0px" y="0px"
	 viewBox="0 0 1413.04 830.74" style="enable-background:new 0 0 1413.04 830.74;" xml:space="preserve">
<style type="text/css">
	.st0{opacity:0.27;fill:#940068;}
	.st1{fill:url(#SVGID_1_);}
	.st2{opacity:0.07;fill:none;stroke:#FFFFFF;stroke-miterlimit:10;}
	.st3{fill:url(#SVGID_2_);}
	.st4{opacity:0.1;fill:none;stroke:#000B6A;stroke-width:0.25;stroke-miterlimit:10;}
</style>
<g>
	<path class="st0" d="M951.35,513.67c-12.83,155.2-238.59,291.51-439.37,292.56C254.39,807.58,14.07,586.44,0.23,386.72
		c-2.16-31.21,1.78-53.58,2.82-59.15C37.41,143.37,305.47,28.02,511.98,35.89c32.77,1.25,70.45,3.01,116.22,20.48
		c104.49,39.89,159.82,126.82,218.73,222.16C919.76,396.41,956.17,455.35,951.35,513.67z"/>
	<linearGradient id="SVGID_1_" gradientUnits="userSpaceOnUse" x1="432.1674" y1="404.472" x2="1379.5354" y2="404.472">
		<stop  offset="0" style="stop-color:#FFFFFF"/>
		<stop  offset="0" style="stop-color:#940063"/>
		<stop  offset="0.2008" style="stop-color:#870064"/>
		<stop  offset="0.5759" style="stop-color:#630066"/>
		<stop  offset="1" style="stop-color:#340068"/>
	</linearGradient>
	<path class="st1" d="M1379.11,501.22c-12.76,161.81-237.39,303.91-437.15,305.01c-256.29,1.41-495.4-229.14-509.16-437.36
		c-2.15-32.54,1.77-55.86,2.81-61.66C469.79,115.16,736.49-5.1,941.96,3.11c32.61,1.3,70.09,3.14,115.63,21.35
		c103.96,41.59,159.02,132.21,217.62,231.61C1347.68,378.96,1383.91,440.41,1379.11,501.22z"/>
	<path class="st2" d="M645.32,206.72c10.75,17.06,7.26,56.84,2.64,40.64c-3.03,14.97-14.03,32.64-36.03,32.64
		c16.5,5.89,16.5-5.89,22-17.67c-5.5,29.45-32.99,17.67-51.87,29.92c-24.84,14.72-42.59,23.66-19.78,3.43
		c-46.91,40.46,34.04-16.33,48.3-36.62c-34.26,16.39-137.29,91.42-107.02,10.57c-32.04,78.97,32.42,18.12,63.82-29.61
		c-42.52,34.36-79.87,49.22-88.14-33.29c8.27,74.99,58.27,25.27,78.42-7.06c-12.75,16.59-17.46-18.94-54.1-55.85
		c43.39,29.67,79.56,39.17,91.75,37.88c11.77-0.72,2.75-18.41-33.03-63.93c83.55,91.04,100.15,114.31,58.72,26.06
		c10.95,22.7,20.63,41.21,27.32,54.53s10.37,21.44,9.33,23.37C656.57,240.4,656.07,223.25,645.32,206.72z"/>
	<path class="st2" d="M1345.58,540.19c-65.91,3.31-122.97,4.33-32.47,23.63c-95-8.85-68.87,4.51,8.14,39.27
		c-85.25-25.95-173.25-58.43-69.97-16.68c-109.51-42.47-94.6-32.95,11.24,42.74c-109.67-75.68-140.06-93.51-91.86-80.94
		c-48.94-13.14-46.27-12.13,33.14,54.88c-79.55-67.18-82.68-68.39-68.29-95.24c-14.53,26.51-13.95,26.4,43.97,32.34
		c-57.92-5.96-58.48-6.12-46.23-52.63c-12.1,46.12-9.68,43.19,70.56-10.28c-80.21,53.44-82.39,55.79-54.56-3.16
		c-27.22,58.7-6.56,39.55,113.29-22.89c-118.93,62.44-136.31,78.11-57.63,18.8c-75.78,59.71,8.61,26.15,116.35,7.26
		c-102.59,24.41-147.3,42.04-33.33,23.67C1182.73,526.8,1279.67,527.42,1345.58,540.19z"/>
	<linearGradient id="SVGID_2_" gradientUnits="userSpaceOnUse" x1="1634.6578" y1="368.3808" x2="1634.6578" y2="368.3808">
		<stop  offset="0" style="stop-color:#FFFFFF"/>
		<stop  offset="0" style="stop-color:#940063"/>
		<stop  offset="0.88" style="stop-color:#10006A"/>
	</linearGradient>
	<path class="st3" d="M1634.66,368.38"/>
	<path class="st4" d="M800.08,543.31c60.73-55.32,104.72,44.82,157.32,53.25"/>
	<path class="st4" d="M809.25,638.85c-8.93-21.27,13.06-44.83,29.56-38.94c49.49,5.89,98.98,29.45,149.65,33.53"/>
	<path class="st4" d="M809.25,638.85c-8.93-21.27,13.06-44.83,29.56-38.94c49.49,5.89,98.98,29.45,149.65,33.53"/>
	<path class="st4" d="M809.25,638.85c-8.93-21.27,13.06-44.83,29.56-38.94c49.49,5.89,98.98,29.45,149.65,33.53"/>
	<path class="st4" d="M831.37,704.58c-9.06-28.09,23.93-45.77,45.93-45.77c43.99,0,87.99,11.78,133.5,18.18"/>
	<path class="st4" d="M831.37,704.58c-9.06-28.09,23.93-45.77,45.93-45.77c43.99,0,87.99,11.78,133.5,18.18"/>
	<path class="st4" d="M831.37,704.58c-9.06-28.09,23.93-45.77,45.93-45.77c43.99,0,87.99,11.78,133.5,18.18"/>
	<path class="st4" d="M849.96,761.6c49.33-37.99,126.32-67.44,171.29-15.21"/>
	<path class="st4" d="M849.96,761.6c49.33-37.99,126.32-67.44,171.29-15.21"/>
	<path class="st4" d="M849.96,761.6c49.33-37.99,126.32-67.44,171.29-15.21"/>
	<path class="st4" d="M849.96,761.6c49.33-37.99,126.32-67.44,171.29-15.21"/>
	<path class="st4" d="M849.96,761.6c49.33-37.99,126.32-67.44,171.29-15.21"/>
	<path class="st4" d="M849.96,761.6c49.33-37.99,126.32-67.44,171.29-15.21"/>
	<path class="st4" d="M849.96,761.6c49.33-37.99,126.32-67.44,171.29-15.21"/>
	<path class="st4" d="M849.96,761.6c49.33-37.99,126.32-67.44,171.29-15.21"/>
	<path class="st4" d="M849.96,761.6c49.33-37.99,126.32-67.44,171.29-15.21"/>
	<path class="st4" d="M850.75,797.58c54.05-3.28,131.04-50.41,162.01,6.13"/>
</g>
</svg>
